<svg xmlns="http://www.w3.org/2000/svg" width="32" height="32" viewBox="0 0 20 50" fill="#3e2723">
  <path d="M10,0 C4,0 1,6 1,18 C1,22 2,26 4,28 C6,30 14,30 16,28 C18,26 19,22 19,18 C19,6 16,0 10,0 Z M10,4 C14,4 16,8 16,18 C16,21 15,24 14,25 C12,26 8,26 6,25 C5,24 4,21 4,18 C4,8 6,4 10,4 Z" />
  <path d="M10,2 C6,2 3,7 3,18 C3,22 4,25 5,26 C7,27 13,27 15,26 C16,25 17,22 17,18 C17,7 14,2 10,2 Z" />
  <path d="M5,34 C3,34 2,36 2,40 C2,46 4,49 10,49 C16,49 18,46 18,40 C18,36 17,34 15,34 H5 Z" />
</svg>